<svg width="641" height="631" viewBox="0 0 641 631" fill="none" xmlns="http://www.w3.org/2000/svg">
<path fill-rule="evenodd" clip-rule="evenodd" d="M271.677 421.72H160.902V550.441H271.677V421.72Z" fill="#8C6423"/>
<path fill-rule="evenodd" clip-rule="evenodd" d="M249.236 462.325L261.38 492.33C261.679 492.996 261.811 493.723 261.766 494.451C261.721 495.178 261.5 495.884 261.122 496.508C260.743 497.132 260.219 497.655 259.593 498.034C258.967 498.412 258.258 498.635 257.528 498.681H252.502V518.235C252.494 521.071 251.358 523.788 249.343 525.793C247.328 527.798 244.598 528.928 241.749 528.937H226.339V550.441H182.789V501.349C178.566 497.062 175.378 491.875 173.468 486.181C171.558 480.486 170.975 474.434 171.764 468.482C172.552 462.531 174.692 456.835 178.02 451.829C181.348 446.822 185.778 442.634 190.973 439.584C196.169 436.534 201.993 434.7 208.007 434.222C214.02 433.744 220.063 434.635 225.679 436.826C231.295 439.017 236.336 442.452 240.421 446.87C244.505 451.288 247.525 456.573 249.253 462.325H249.236Z" fill="#00FFBF"/>
<path fill-rule="evenodd" clip-rule="evenodd" d="M188.75 550.441H171.422V473.703H188.75V550.441Z" fill="#00FFBF"/>
<path fill-rule="evenodd" clip-rule="evenodd" d="M210.41 475.167V492.269H227.747C232.337 492.251 236.735 490.452 239.979 487.264C243.224 484.076 245.053 479.757 245.066 475.251C245.053 470.744 243.224 466.425 239.979 463.237C236.735 460.049 232.337 458.25 227.747 458.232C223.153 458.245 218.751 460.043 215.503 463.231C212.254 466.42 210.424 470.741 210.41 475.251V475.167Z" fill="#8C6423"/>
<path fill-rule="evenodd" clip-rule="evenodd" d="M219.074 474.632C219.074 476.285 219.565 477.901 220.483 479.275C221.402 480.649 222.708 481.72 224.235 482.352C225.763 482.984 227.444 483.148 229.065 482.824C230.686 482.501 232.174 481.703 233.342 480.533C234.51 479.363 235.304 477.873 235.625 476.251C235.945 474.629 235.777 472.949 235.142 471.423C234.507 469.896 233.434 468.593 232.058 467.677C230.682 466.761 229.065 466.274 227.412 466.277C226.315 466.277 225.23 466.493 224.217 466.913C223.204 467.333 222.285 467.949 221.51 468.725C220.736 469.501 220.122 470.422 219.704 471.436C219.286 472.449 219.072 473.535 219.074 474.632Z" fill="#FED09E"/>
<path fill-rule="evenodd" clip-rule="evenodd" d="M110.775 222.449H0V351.171H110.775V222.449Z" fill="black"/>
<path fill-rule="evenodd" clip-rule="evenodd" d="M88.7022 261.6L101.092 292.087C101.395 292.763 101.53 293.502 101.483 294.241C101.436 294.98 101.21 295.697 100.824 296.33C100.438 296.964 99.9024 297.496 99.2639 297.88C98.6255 298.265 97.9027 298.491 97.1572 298.539H92.1344V318.444C92.13 321.326 90.9737 324.088 88.9186 326.127C86.8635 328.167 84.0768 329.316 81.1681 329.325H65.3968V351.171H20.8619V301.276C16.5575 296.92 13.3096 291.651 11.3641 285.868C9.41859 280.085 8.8264 273.939 9.63237 267.896C10.4383 261.852 12.6213 256.07 16.0162 250.986C19.411 245.902 23.9287 241.649 29.2273 238.55C34.5259 235.451 40.4666 233.587 46.5998 233.099C52.733 232.61 58.898 233.511 64.6282 235.731C70.3584 237.952 75.5036 241.435 79.6744 245.917C83.8452 250.398 86.9324 255.761 88.7022 261.6Z" fill="#FF1E00"/>
<path fill-rule="evenodd" clip-rule="evenodd" d="M75.7254 267.645L84.7158 275.755C85.1551 276.154 85.4018 276.696 85.4018 277.261C85.4018 277.826 85.1551 278.368 84.7158 278.768C84.277 279.162 83.6847 279.383 83.0676 279.383C82.4505 279.383 81.8582 279.162 81.4194 278.768L72.4641 270.626C72.0303 270.227 71.787 269.688 71.787 269.127C71.787 268.566 72.0303 268.028 72.4641 267.629C72.6803 267.431 72.9372 267.275 73.22 267.168C73.5029 267.061 73.8061 267.006 74.1124 267.006C74.4187 267.006 74.7219 267.061 75.0047 267.168C75.2876 267.275 75.5445 267.431 75.7606 267.629L75.7254 267.645Z" fill="white"/>
<path fill-rule="evenodd" clip-rule="evenodd" d="M58.6709 267.63L66.8477 275.753C67.2372 276.158 67.4551 276.699 67.4551 277.263C67.4551 277.826 67.2372 278.367 66.8477 278.772C66.4462 279.164 65.9088 279.383 65.3494 279.383C64.7901 279.383 64.2527 279.164 63.8512 278.772L55.6903 270.632C55.298 270.232 55.078 269.693 55.078 269.131C55.078 268.569 55.298 268.029 55.6903 267.63C55.8857 267.432 56.118 267.275 56.3737 267.168C56.6295 267.061 56.9037 267.006 57.1806 267.006C57.4575 267.006 57.7317 267.061 57.9874 267.168C58.2432 267.275 58.4754 267.432 58.6709 267.63Z" fill="white"/>
<path fill-rule="evenodd" clip-rule="evenodd" d="M74.7654 270.627L66.7484 278.772C66.3445 279.164 65.8039 279.383 65.2412 279.383C64.6785 279.383 64.1379 279.164 63.734 278.772C63.3422 278.369 63.123 277.828 63.123 277.265C63.123 276.703 63.3422 276.162 63.734 275.758L71.8792 267.629C72.0759 267.432 72.3095 267.275 72.5668 267.168C72.8241 267.061 73.0999 267.006 73.3784 267.006C73.657 267.006 73.9328 267.061 74.1901 267.168C74.4473 267.275 74.681 267.432 74.8776 267.629C75.0749 267.825 75.2315 268.059 75.3383 268.316C75.4451 268.574 75.5001 268.849 75.5001 269.128C75.5001 269.407 75.4451 269.682 75.3383 269.94C75.2315 270.197 75.0749 270.431 74.8776 270.627H74.7654Z" fill="white"/>
<path fill-rule="evenodd" clip-rule="evenodd" d="M488.449 30.4971H377.055V159.219H488.449V30.4971Z" fill="#006FFF"/>
<path fill-rule="evenodd" clip-rule="evenodd" d="M395.002 122.706H439.559V159.219H395.002V122.706Z" fill="#4AE1FF"/>
<path fill-rule="evenodd" clip-rule="evenodd" d="M394.591 144.985V106.274C389.127 100.628 385.428 93.4716 383.956 85.7017C382.484 77.9318 383.305 69.8939 386.316 62.5954C389.328 55.297 394.396 49.0626 400.884 44.6737C407.373 40.2848 414.995 37.9366 422.794 37.9233C453.053 37.9233 465.23 73.4703 480.626 97.1178C480.925 97.7928 481.058 98.5313 481.014 99.27C480.97 100.009 480.751 100.726 480.374 101.359C479.997 101.993 479.475 102.525 478.851 102.909C478.227 103.293 477.521 103.518 476.793 103.564H464.268V134.062C464.259 136.946 463.125 139.708 461.114 141.746C459.102 143.784 456.377 144.93 453.535 144.934L394.591 144.985Z" fill="#4AE1FF"/>
<path fill-rule="evenodd" clip-rule="evenodd" d="M384.483 87.4317C383.651 84.2838 383.235 81.0459 383.244 77.7959C383.245 76.0871 383.357 74.3801 383.579 72.685L457.064 57.7267C464.198 66.6463 470.093 77.5191 476.072 87.4317H384.483Z" fill="#0098D9"/>
<path fill-rule="evenodd" clip-rule="evenodd" d="M456.765 71.9603H431.017C430.676 71.9603 430.339 72.0243 430.023 72.1487C429.708 72.2731 429.422 72.4555 429.181 72.6854C428.94 72.9152 428.748 73.1881 428.618 73.4884C428.487 73.7887 428.42 74.1106 428.42 74.4357C428.42 74.7608 428.487 75.0827 428.618 75.383C428.748 75.6833 428.94 75.9563 429.181 76.1861C429.422 76.416 429.708 76.5983 430.023 76.7227C430.339 76.8471 430.676 76.9112 431.017 76.9112H456.765C457.454 76.9112 458.115 76.6504 458.602 76.1861C459.089 75.7219 459.363 75.0922 459.363 74.4357C459.363 74.1106 459.295 73.7887 459.165 73.4884C459.034 73.1881 458.843 72.9152 458.602 72.6854C458.361 72.4555 458.074 72.2731 457.759 72.1487C457.444 72.0243 457.106 71.9603 456.765 71.9603Z" fill="white"/>
<path fill-rule="evenodd" clip-rule="evenodd" d="M488.275 282.478H376.882V411.199H488.275V282.478Z" fill="#FFDDA7"/>
<path fill-rule="evenodd" clip-rule="evenodd" d="M464.25 325.328L476.126 354.606C476.42 355.253 476.552 355.961 476.51 356.67C476.468 357.379 476.253 358.067 475.885 358.674C475.517 359.282 475.006 359.792 474.396 360.159C473.786 360.526 473.096 360.74 472.385 360.782H467.591V379.857C467.586 382.621 466.484 385.27 464.524 387.226C462.565 389.182 459.908 390.285 457.134 390.293H450.152V411.199H394.196V356.404C391.364 351.723 389.563 346.496 388.913 341.068C388.263 335.641 388.778 330.138 390.425 324.924C392.072 319.71 394.813 314.905 398.465 310.828C402.118 306.75 406.599 303.493 411.611 301.273C416.623 299.053 422.052 297.92 427.537 297.95C433.022 297.98 438.438 299.172 443.426 301.447C448.413 303.721 452.858 307.027 456.466 311.144C460.073 315.262 462.761 320.097 464.35 325.328H464.25Z" fill="#800450"/>
<path fill-rule="evenodd" clip-rule="evenodd" d="M448.669 328.892H458.571C459.884 328.892 461.143 329.446 462.071 330.433C463 331.419 463.521 332.757 463.521 334.152C463.521 335.547 463 336.885 462.071 337.872C461.143 338.858 459.884 339.412 458.571 339.412H448.669C447.356 339.412 446.097 338.858 445.168 337.872C444.24 336.885 443.718 335.547 443.718 334.152C443.718 332.757 444.24 331.419 445.168 330.433C446.097 329.446 447.356 328.892 448.669 328.892Z" fill="#F05B72"/>
<path fill-rule="evenodd" clip-rule="evenodd" d="M424.069 328.892H434.28C435.635 328.892 436.933 329.446 437.891 330.433C438.848 331.419 439.386 332.757 439.386 334.152C439.386 335.547 438.848 336.885 437.891 337.872C436.933 338.858 435.635 339.412 434.28 339.412H424.069C422.715 339.412 421.417 338.858 420.459 337.872C419.502 336.885 418.964 335.547 418.964 334.152C418.964 332.757 419.502 331.419 420.459 330.433C421.417 329.446 422.715 328.892 424.069 328.892Z" fill="#F05B72"/>
<path fill-rule="evenodd" clip-rule="evenodd" d="M640.513 198.314H529.739V327.035H640.513V198.314Z" fill="#D93B21"/>
<path fill-rule="evenodd" clip-rule="evenodd" d="M600.309 327.035H549.715V275.874C545.285 271.407 541.941 266 539.935 260.062C537.929 254.125 537.315 247.812 538.139 241.605C538.962 235.397 541.202 229.456 544.688 224.233C548.174 219.01 552.815 214.643 558.259 211.461C563.703 208.279 569.807 206.367 576.108 205.87C582.409 205.373 588.742 206.304 594.625 208.592C600.509 210.88 605.79 214.465 610.066 219.075C614.343 223.685 617.504 229.2 619.309 235.2L632.004 266.48C633.008 268.899 632.472 272.726 629.529 272.793L622.838 272.958V293.486C622.83 296.44 621.641 299.271 619.532 301.36C617.423 303.449 614.565 304.627 611.582 304.636H600.393V327.035H600.309Z" fill="#9F00D9"/>
<path fill-rule="evenodd" clip-rule="evenodd" d="M574.678 205.74C575.293 206.402 575.735 207.204 575.967 208.074C576.199 208.945 576.214 209.859 576.009 210.736C575.805 211.614 575.388 212.428 574.795 213.11C574.202 213.791 573.451 214.318 572.606 214.645C571.761 214.972 570.849 215.089 569.948 214.987C569.047 214.884 568.185 214.564 567.437 214.056C566.689 213.547 566.077 212.865 565.655 212.068C565.232 211.271 565.012 210.383 565.013 209.483C565.016 208.966 565.088 208.452 565.226 207.953C568.277 206.846 571.45 206.103 574.678 205.74Z" fill="#ED5643"/>
<path fill-rule="evenodd" clip-rule="evenodd" d="M582.994 205.858C583.807 206.46 584.385 207.26 584.651 208.152C584.918 209.043 584.861 209.983 584.486 210.846C584.112 211.709 583.439 212.453 582.558 212.978C581.677 213.504 580.629 213.785 579.556 213.785C578.483 213.785 577.436 213.504 576.554 212.978C575.673 212.453 575 211.709 574.626 210.846C574.252 209.983 574.194 209.043 574.461 208.152C574.728 207.26 575.306 206.46 576.118 205.858C577.201 205.858 578.284 205.74 579.402 205.74C580.519 205.74 581.791 205.74 582.96 205.873L582.994 205.858Z" fill="#ED5643"/>
<path fill-rule="evenodd" clip-rule="evenodd" d="M592.506 207.456C592.736 208.017 592.857 208.616 592.862 209.221C592.862 210.432 592.373 211.593 591.502 212.448C590.632 213.304 589.451 213.785 588.22 213.785C586.989 213.785 585.809 213.304 584.938 212.448C584.068 211.593 583.579 210.432 583.579 209.221C583.582 208.554 583.735 207.896 584.028 207.294C584.321 206.692 584.746 206.161 585.273 205.74C587.739 206.088 590.171 206.646 592.54 207.406L592.506 207.456Z" fill="#ED5643"/>
<path fill-rule="evenodd" clip-rule="evenodd" d="M600.288 210.79C599.83 211.475 599.141 212.004 598.328 212.296C597.514 212.588 596.619 212.627 595.779 212.407C594.939 212.188 594.2 211.722 593.673 211.08C593.146 210.437 592.862 209.655 592.862 208.85C592.863 208.423 592.942 208 593.094 207.597C595.597 208.446 598.006 209.516 600.288 210.79Z" fill="#ED5643"/>
<path fill-rule="evenodd" clip-rule="evenodd" d="M570.583 215.023C571.685 215.023 572.763 215.35 573.679 215.962C574.595 216.575 575.309 217.446 575.73 218.465C576.151 219.483 576.261 220.604 576.044 221.685C575.828 222.766 575.296 223.758 574.515 224.537C573.735 225.315 572.741 225.844 571.659 226.057C570.578 226.27 569.458 226.157 568.44 225.733C567.423 225.309 566.554 224.593 565.944 223.675C565.334 222.757 565.01 221.678 565.013 220.576C565.013 219.845 565.157 219.122 565.437 218.447C565.718 217.772 566.128 217.159 566.645 216.643C567.163 216.127 567.777 215.719 568.453 215.441C569.128 215.163 569.852 215.021 570.583 215.023Z" fill="#ED5643"/>
<path fill-rule="evenodd" clip-rule="evenodd" d="M579.539 215.023C580.581 215.019 581.6 215.325 582.468 215.902C583.336 216.479 584.013 217.3 584.413 218.262C584.813 219.224 584.919 220.283 584.716 221.305C584.514 222.327 584.013 223.266 583.276 224.002C582.539 224.739 581.6 225.241 580.578 225.443C579.556 225.645 578.497 225.54 577.535 225.139C576.573 224.739 575.752 224.062 575.175 223.195C574.599 222.327 574.293 221.308 574.296 220.266C574.296 218.875 574.848 217.542 575.832 216.558C576.815 215.575 578.149 215.023 579.539 215.023Z" fill="#ED5643"/>
<path fill-rule="evenodd" clip-rule="evenodd" d="M588.153 216.261C589.071 216.248 589.972 216.507 590.742 217.006C591.513 217.505 592.118 218.221 592.482 219.064C592.846 219.906 592.951 220.838 592.785 221.741C592.619 222.644 592.189 223.477 591.55 224.136C590.91 224.794 590.09 225.248 589.192 225.44C588.294 225.633 587.36 225.554 586.507 225.216C585.654 224.877 584.92 224.293 584.399 223.537C583.878 222.781 583.592 221.888 583.579 220.97C583.579 219.739 584.068 218.559 584.938 217.688C585.809 216.818 586.989 216.329 588.22 216.329L588.153 216.261Z" fill="#ED5643"/>
<path fill-rule="evenodd" clip-rule="evenodd" d="M597.194 216.261C598.051 216.261 598.889 216.497 599.602 216.94C600.315 217.382 600.87 218.012 601.198 218.748C601.525 219.484 601.61 220.293 601.441 221.074C601.272 221.855 600.858 222.571 600.25 223.133C599.643 223.695 598.869 224.077 598.028 224.23C597.186 224.384 596.315 224.302 595.523 223.995C594.732 223.688 594.057 223.169 593.583 222.506C593.109 221.842 592.858 221.063 592.862 220.266C592.862 219.739 592.974 219.217 593.192 218.73C593.41 218.242 593.729 217.8 594.132 217.428C594.534 217.056 595.012 216.761 595.537 216.561C596.063 216.36 596.626 216.258 597.194 216.261Z" fill="#ED5643"/>
<path fill-rule="evenodd" clip-rule="evenodd" d="M605.858 216.879C606.592 216.879 607.31 217.061 607.92 217.401C608.531 217.741 609.007 218.224 609.288 218.79C609.569 219.355 609.643 219.977 609.499 220.577C609.356 221.178 609.002 221.729 608.483 222.162C607.964 222.594 607.302 222.889 606.582 223.008C605.862 223.128 605.115 223.067 604.437 222.832C603.758 222.598 603.178 222.202 602.77 221.693C602.362 221.184 602.144 220.586 602.144 219.974C602.149 219.154 602.542 218.369 603.237 217.79C603.932 217.211 604.874 216.883 605.858 216.879Z" fill="#ED5643"/>
<path fill-rule="evenodd" clip-rule="evenodd" d="M570.599 226.162C571.7 226.166 572.775 226.513 573.689 227.161C574.603 227.81 575.314 228.729 575.733 229.804C576.152 230.878 576.26 232.06 576.044 233.199C575.827 234.338 575.295 235.384 574.515 236.205C573.736 237.025 572.743 237.583 571.663 237.809C570.583 238.034 569.464 237.917 568.448 237.471C567.431 237.026 566.562 236.272 565.951 235.306C565.339 234.339 565.013 233.203 565.013 232.041C565.013 231.268 565.158 230.502 565.439 229.788C565.72 229.073 566.131 228.424 566.65 227.878C567.169 227.332 567.785 226.899 568.463 226.605C569.14 226.31 569.866 226.16 570.599 226.162Z" fill="#ED5643"/>
<path fill-rule="evenodd" clip-rule="evenodd" d="M579.539 226.162C580.58 226.159 581.599 226.465 582.466 227.041C583.334 227.616 584.01 228.437 584.411 229.398C584.812 230.359 584.919 231.417 584.718 232.438C584.517 233.46 584.017 234.399 583.282 235.136C582.547 235.873 581.61 236.376 580.589 236.58C579.568 236.785 578.509 236.682 577.547 236.284C576.585 235.886 575.762 235.212 575.184 234.347C574.605 233.481 574.296 232.464 574.296 231.423C574.296 230.03 574.848 228.695 575.831 227.709C576.813 226.723 578.147 226.167 579.539 226.162Z" fill="#ED5643"/>
<path fill-rule="evenodd" clip-rule="evenodd" d="M588.22 227.4C589.138 227.4 590.036 227.636 590.799 228.078C591.562 228.52 592.157 229.148 592.508 229.883C592.86 230.618 592.952 231.427 592.772 232.207C592.593 232.987 592.151 233.704 591.502 234.267C590.853 234.829 590.026 235.213 589.126 235.368C588.225 235.523 587.292 235.443 586.444 235.139C585.596 234.834 584.871 234.319 584.361 233.657C583.851 232.996 583.579 232.218 583.579 231.422C583.579 230.356 584.068 229.332 584.938 228.578C585.809 227.824 586.989 227.4 588.22 227.4Z" fill="#ED5643"/>
<path fill-rule="evenodd" clip-rule="evenodd" d="M597.194 227.4C598.05 227.4 598.888 227.636 599.6 228.078C600.313 228.52 600.868 229.148 601.196 229.883C601.524 230.618 601.609 231.427 601.442 232.207C601.275 232.988 600.863 233.704 600.257 234.267C599.651 234.829 598.879 235.212 598.039 235.368C597.198 235.523 596.327 235.443 595.536 235.139C594.744 234.834 594.068 234.319 593.592 233.657C593.116 232.996 592.862 232.218 592.862 231.423C592.859 230.894 592.97 230.37 593.187 229.881C593.403 229.392 593.722 228.947 594.125 228.573C594.528 228.199 595.006 227.903 595.533 227.702C596.06 227.5 596.624 227.398 597.194 227.4Z" fill="#ED5643"/>
<path fill-rule="evenodd" clip-rule="evenodd" d="M605.858 228.638C606.592 228.638 607.31 228.819 607.92 229.159C608.531 229.499 609.007 229.982 609.288 230.548C609.569 231.113 609.643 231.735 609.499 232.336C609.356 232.936 609.002 233.487 608.483 233.92C607.964 234.353 607.302 234.647 606.582 234.767C605.862 234.886 605.115 234.825 604.437 234.591C603.758 234.356 603.178 233.96 602.77 233.451C602.362 232.942 602.144 232.344 602.144 231.732C602.144 230.911 602.536 230.124 603.232 229.544C603.928 228.964 604.873 228.638 605.858 228.638Z" fill="#ED5643"/>
<path fill-rule="evenodd" clip-rule="evenodd" d="M615.404 228.639C615.973 228.618 616.533 228.796 617.003 229.149C617.451 230.186 617.867 231.276 618.235 232.365C618.126 232.937 617.872 233.464 617.502 233.883C617.133 234.303 616.663 234.6 616.146 234.738C615.63 234.876 615.089 234.851 614.585 234.666C614.081 234.48 613.635 234.141 613.299 233.688C612.963 233.236 612.75 232.688 612.686 232.108C612.621 231.528 612.707 230.94 612.934 230.412C613.161 229.884 613.52 229.437 613.968 229.123C614.416 228.81 614.936 228.642 615.468 228.639H615.404Z" fill="#ED5643"/>
<path fill-rule="evenodd" clip-rule="evenodd" d="M570.583 237.92C571.684 237.92 572.761 238.247 573.677 238.859C574.593 239.471 575.307 240.341 575.729 241.359C576.15 242.376 576.26 243.496 576.046 244.577C575.831 245.657 575.3 246.649 574.521 247.428C573.742 248.207 572.75 248.738 571.669 248.953C570.589 249.168 569.469 249.057 568.451 248.636C567.434 248.214 566.564 247.5 565.952 246.584C565.34 245.668 565.013 244.592 565.013 243.49C565.013 242.013 565.6 240.596 566.644 239.552C567.689 238.507 569.106 237.92 570.583 237.92Z" fill="#ED5643"/>
<path fill-rule="evenodd" clip-rule="evenodd" d="M579.539 237.92C580.58 237.917 581.599 238.223 582.466 238.798C583.334 239.374 584.01 240.195 584.411 241.156C584.812 242.116 584.919 243.175 584.718 244.196C584.517 245.218 584.017 246.157 583.282 246.894C582.547 247.631 581.61 248.134 580.589 248.338C579.568 248.543 578.509 248.44 577.547 248.042C576.585 247.644 575.762 246.97 575.184 246.105C574.605 245.239 574.296 244.222 574.296 243.181C574.294 242.491 574.428 241.807 574.69 241.169C574.953 240.531 575.339 239.951 575.826 239.462C576.313 238.973 576.891 238.586 577.529 238.321C578.166 238.057 578.849 237.92 579.539 237.92Z" fill="#ED5643"/>
<path fill-rule="evenodd" clip-rule="evenodd" d="M588.203 238.539C589.122 238.536 590.021 238.788 590.787 239.262C591.552 239.736 592.15 240.411 592.503 241.202C592.857 241.994 592.952 242.865 592.774 243.707C592.597 244.548 592.157 245.321 591.508 245.929C590.86 246.536 590.033 246.95 589.132 247.119C588.231 247.287 587.297 247.202 586.448 246.875C585.599 246.547 584.873 245.992 584.362 245.28C583.851 244.567 583.579 243.729 583.579 242.871C583.579 241.725 584.066 240.626 584.932 239.814C585.799 239.002 586.975 238.543 588.203 238.539Z" fill="#ED5643"/>
<path fill-rule="evenodd" clip-rule="evenodd" d="M597.194 238.539C598.05 238.539 598.888 238.793 599.6 239.269C600.313 239.745 600.868 240.422 601.196 241.213C601.524 242.005 601.609 242.876 601.442 243.716C601.275 244.557 600.863 245.328 600.257 245.934C599.651 246.54 598.879 246.953 598.039 247.12C597.198 247.287 596.327 247.201 595.536 246.873C594.744 246.546 594.068 245.99 593.592 245.278C593.116 244.566 592.862 243.728 592.862 242.871C592.859 242.302 592.97 241.737 593.187 241.211C593.403 240.684 593.722 240.205 594.125 239.803C594.528 239.4 595.006 239.081 595.533 238.864C596.06 238.647 596.624 238.537 597.194 238.539Z" fill="#ED5643"/>
<path fill-rule="evenodd" clip-rule="evenodd" d="M605.858 239.777C606.591 239.777 607.308 239.958 607.919 240.297C608.529 240.637 609.005 241.119 609.286 241.684C609.568 242.248 609.642 242.87 609.501 243.469C609.359 244.069 609.007 244.621 608.489 245.054C607.972 245.487 607.312 245.783 606.593 245.904C605.874 246.025 605.128 245.966 604.449 245.734C603.77 245.502 603.189 245.108 602.779 244.601C602.369 244.094 602.148 243.497 602.144 242.886C602.144 242.064 602.535 241.275 603.231 240.693C603.927 240.11 604.871 239.781 605.858 239.777Z" fill="#ED5643"/>
<path fill-rule="evenodd" clip-rule="evenodd" d="M615.434 239.777C615.986 239.774 616.527 239.953 616.987 240.291C617.448 240.63 617.807 241.113 618.02 241.679C618.232 242.245 618.289 242.869 618.182 243.471C618.075 244.072 617.809 244.625 617.419 245.059C617.029 245.493 616.531 245.788 615.989 245.907C615.448 246.026 614.886 245.963 614.377 245.727C613.867 245.49 613.433 245.091 613.128 244.579C612.823 244.068 612.662 243.467 612.665 242.854C612.665 242.038 612.957 241.255 613.476 240.678C613.995 240.101 614.7 239.777 615.434 239.777Z" fill="#ED5643"/>
<path fill-rule="evenodd" clip-rule="evenodd" d="M623.185 244.728C622.81 244.51 622.495 244.181 622.277 243.777C622.058 243.373 621.944 242.91 621.948 242.438C621.951 242.165 621.989 241.895 622.06 241.633L623.185 244.728Z" fill="#ED5643"/>
<path fill-rule="evenodd" clip-rule="evenodd" d="M570.583 249.06C571.685 249.06 572.763 249.369 573.679 249.947C574.595 250.526 575.309 251.348 575.73 252.311C576.151 253.273 576.261 254.331 576.044 255.352C575.828 256.373 575.296 257.31 574.515 258.045C573.735 258.78 572.741 259.28 571.659 259.481C570.578 259.682 569.458 259.576 568.44 259.175C567.423 258.775 566.554 258.098 565.944 257.231C565.334 256.364 565.01 255.346 565.013 254.304C565.013 253.614 565.157 252.931 565.437 252.294C565.718 251.656 566.128 251.078 566.645 250.59C567.163 250.103 567.777 249.717 568.453 249.455C569.128 249.192 569.852 249.058 570.583 249.06Z" fill="#ED5643"/>
<path fill-rule="evenodd" clip-rule="evenodd" d="M579.539 249.06C580.581 249.056 581.6 249.362 582.468 249.939C583.336 250.516 584.013 251.337 584.413 252.299C584.813 253.261 584.919 254.32 584.716 255.342C584.514 256.364 584.013 257.303 583.276 258.039C582.539 258.776 581.6 259.278 580.578 259.48C579.556 259.682 578.497 259.577 577.535 259.177C576.573 258.776 575.752 258.099 575.175 257.232C574.599 256.364 574.293 255.345 574.296 254.303C574.296 252.912 574.848 251.579 575.832 250.595C576.815 249.612 578.149 249.06 579.539 249.06Z" fill="#ED5643"/>
<path fill-rule="evenodd" clip-rule="evenodd" d="M588.22 249.06C589.138 249.06 590.036 249.332 590.799 249.842C591.562 250.352 592.157 251.077 592.508 251.925C592.86 252.773 592.952 253.706 592.772 254.607C592.593 255.507 592.151 256.334 591.502 256.983C590.853 257.632 590.026 258.074 589.126 258.253C588.225 258.432 587.292 258.341 586.444 257.989C585.596 257.638 584.871 257.043 584.361 256.28C583.851 255.516 583.579 254.619 583.579 253.701C583.579 252.47 584.068 251.29 584.938 250.419C585.809 249.549 586.989 249.06 588.22 249.06Z" fill="#ED5643"/>
<path fill-rule="evenodd" clip-rule="evenodd" d="M597.194 250.298C598.051 250.298 598.889 250.534 599.602 250.977C600.315 251.419 600.87 252.049 601.198 252.785C601.525 253.521 601.61 254.33 601.441 255.111C601.272 255.892 600.858 256.608 600.25 257.17C599.643 257.732 598.869 258.114 598.028 258.267C597.186 258.421 596.315 258.339 595.523 258.032C594.732 257.725 594.057 257.206 593.583 256.543C593.109 255.879 592.858 255.1 592.862 254.303C592.862 253.776 592.974 253.254 593.192 252.767C593.41 252.279 593.729 251.837 594.132 251.465C594.534 251.093 595.012 250.798 595.537 250.598C596.063 250.397 596.626 250.295 597.194 250.298Z" fill="#ED5643"/>
<path fill-rule="evenodd" clip-rule="evenodd" d="M605.858 250.297C606.592 250.297 607.31 250.515 607.92 250.923C608.531 251.331 609.007 251.911 609.288 252.59C609.569 253.268 609.643 254.015 609.499 254.735C609.356 255.455 609.002 256.117 608.483 256.636C607.964 257.155 607.302 257.509 606.582 257.652C605.862 257.796 605.115 257.722 604.437 257.441C603.758 257.16 603.178 256.684 602.77 256.073C602.362 255.463 602.144 254.745 602.144 254.011C602.149 253.027 602.542 252.086 603.237 251.39C603.932 250.695 604.874 250.302 605.858 250.297Z" fill="#ED5643"/>
<path fill-rule="evenodd" clip-rule="evenodd" d="M615.434 251.535C615.986 251.532 616.527 251.711 616.987 252.05C617.448 252.388 617.807 252.871 618.02 253.437C618.232 254.003 618.289 254.627 618.182 255.229C618.075 255.831 617.809 256.384 617.419 256.817C617.029 257.251 616.531 257.546 615.989 257.665C615.448 257.784 614.886 257.721 614.377 257.485C613.867 257.249 613.433 256.849 613.128 256.338C612.823 255.826 612.662 255.226 612.665 254.612C612.665 253.796 612.957 253.014 613.476 252.437C613.995 251.86 614.7 251.535 615.434 251.535Z" fill="#ED5643"/>
<path fill-rule="evenodd" clip-rule="evenodd" d="M624.159 251.535C624.579 251.539 624.989 251.68 625.341 251.942C625.693 252.204 625.972 252.576 626.144 253.014V253.151C626.234 253.426 626.28 253.717 626.28 254.011C626.28 254.5 626.153 254.979 625.915 255.386C625.677 255.793 625.338 256.11 624.943 256.298C624.547 256.485 624.111 256.534 623.691 256.439C623.271 256.343 622.885 256.107 622.582 255.761C622.279 255.415 622.073 254.974 621.989 254.494C621.906 254.013 621.949 253.516 622.113 253.063C622.277 252.611 622.554 252.225 622.91 251.953C623.267 251.681 623.685 251.535 624.114 251.535H624.159Z" fill="#ED5643"/>
<path fill-rule="evenodd" clip-rule="evenodd" d="M570.599 259.58C571.7 259.583 572.775 259.913 573.689 260.527C574.603 261.141 575.314 262.012 575.733 263.03C576.152 264.048 576.26 265.167 576.044 266.247C575.827 267.326 575.295 268.317 574.515 269.094C573.736 269.871 572.743 270.4 571.663 270.614C570.583 270.827 569.464 270.716 568.448 270.294C567.431 269.872 566.562 269.158 565.951 268.243C565.339 267.327 565.013 266.251 565.013 265.15C565.013 264.417 565.158 263.692 565.439 263.015C565.72 262.338 566.131 261.723 566.65 261.206C567.169 260.688 567.785 260.278 568.463 259.999C569.14 259.721 569.866 259.578 570.599 259.58Z" fill="#ED5643"/>
<path fill-rule="evenodd" clip-rule="evenodd" d="M579.539 260.818C580.58 260.815 581.599 261.102 582.466 261.645C583.334 262.187 584.01 262.959 584.411 263.863C584.812 264.767 584.919 265.763 584.718 266.725C584.517 267.686 584.017 268.57 583.282 269.264C582.547 269.958 581.61 270.431 580.589 270.623C579.568 270.816 578.509 270.719 577.547 270.344C576.585 269.97 575.762 269.336 575.184 268.521C574.605 267.707 574.296 266.749 574.296 265.769C574.296 264.459 574.848 263.202 575.831 262.274C576.813 261.346 578.147 260.822 579.539 260.818Z" fill="#ED5643"/>
<path fill-rule="evenodd" clip-rule="evenodd" d="M588.22 260.818C589.138 260.818 590.036 261.09 590.799 261.6C591.562 262.11 592.157 262.835 592.508 263.683C592.86 264.531 592.952 265.465 592.772 266.365C592.593 267.265 592.151 268.092 591.502 268.741C590.853 269.39 590.026 269.833 589.126 270.012C588.225 270.191 587.292 270.099 586.444 269.747C585.596 269.396 584.871 268.801 584.361 268.038C583.851 267.275 583.579 266.377 583.579 265.459C583.579 264.228 584.068 263.048 584.938 262.177C585.809 261.307 586.989 260.818 588.22 260.818Z" fill="#ED5643"/>
<path fill-rule="evenodd" clip-rule="evenodd" d="M597.194 261.437C598.05 261.437 598.888 261.691 599.6 262.167C600.313 262.643 600.868 263.32 601.196 264.111C601.524 264.903 601.609 265.774 601.442 266.614C601.275 267.454 600.863 268.226 600.257 268.832C599.651 269.438 598.879 269.85 598.039 270.018C597.198 270.185 596.327 270.099 595.536 269.771C594.744 269.443 594.068 268.888 593.592 268.176C593.116 267.463 592.862 266.626 592.862 265.769C592.862 264.62 593.318 263.518 594.13 262.706C594.943 261.893 596.045 261.437 597.194 261.437Z" fill="#ED5643"/>
<path fill-rule="evenodd" clip-rule="evenodd" d="M605.858 261.437C606.592 261.437 607.31 261.655 607.92 262.063C608.531 262.471 609.007 263.051 609.288 263.729C609.569 264.407 609.643 265.154 609.499 265.874C609.356 266.595 609.002 267.256 608.483 267.776C607.964 268.295 607.302 268.648 606.582 268.792C605.862 268.935 605.115 268.862 604.437 268.581C603.758 268.299 603.178 267.824 602.77 267.213C602.362 266.602 602.144 265.884 602.144 265.15C602.144 264.165 602.536 263.221 603.232 262.524C603.928 261.828 604.873 261.437 605.858 261.437Z" fill="#ED5643"/>
<path fill-rule="evenodd" clip-rule="evenodd" d="M615.434 262.674C615.985 262.672 616.525 262.815 616.985 263.085C617.445 263.355 617.805 263.741 618.018 264.193C618.231 264.645 618.289 265.143 618.183 265.624C618.077 266.105 617.813 266.548 617.425 266.895C617.036 267.243 616.539 267.48 615.999 267.577C615.458 267.673 614.897 267.625 614.388 267.438C613.878 267.251 613.442 266.934 613.135 266.527C612.829 266.119 612.665 265.64 612.665 265.15C612.665 264.496 612.956 263.868 613.475 263.404C613.994 262.941 614.698 262.678 615.434 262.674Z" fill="#ED5643"/>
<path fill-rule="evenodd" clip-rule="evenodd" d="M624.114 262.674C624.542 262.674 624.961 262.82 625.317 263.092C625.673 263.364 625.951 263.75 626.115 264.203C626.279 264.655 626.322 265.153 626.238 265.633C626.155 266.113 625.948 266.554 625.645 266.9C625.342 267.247 624.956 267.482 624.536 267.578C624.116 267.673 623.681 267.624 623.285 267.437C622.889 267.25 622.551 266.932 622.313 266.525C622.075 266.118 621.948 265.639 621.948 265.15C621.948 264.493 622.176 263.864 622.582 263.399C622.988 262.935 623.539 262.674 624.114 262.674Z" fill="#ED5643"/>
<path fill-rule="evenodd" clip-rule="evenodd" d="M570.583 270.72C571.684 270.72 572.761 271.064 573.677 271.71C574.593 272.356 575.307 273.275 575.729 274.349C576.15 275.423 576.26 276.605 576.046 277.746C575.831 278.886 575.3 279.934 574.521 280.756C573.742 281.578 572.75 282.138 571.669 282.365C570.589 282.592 569.469 282.475 568.451 282.03C567.434 281.585 566.564 280.832 565.952 279.865C565.34 278.898 565.013 277.761 565.013 276.599C565.013 275.039 565.6 273.544 566.644 272.442C567.689 271.339 569.106 270.72 570.583 270.72Z" fill="#ED5643"/>
<path fill-rule="evenodd" clip-rule="evenodd" d="M579.539 271.957C580.58 271.954 581.599 272.26 582.466 272.835C583.334 273.411 584.01 274.232 584.411 275.193C584.812 276.154 584.919 277.212 584.718 278.233C584.517 279.255 584.017 280.194 583.282 280.931C582.547 281.668 581.61 282.171 580.589 282.375C579.568 282.58 578.509 282.477 577.547 282.079C576.585 281.681 575.762 281.007 575.184 280.142C574.605 279.276 574.296 278.259 574.296 277.218C574.294 276.528 574.428 275.844 574.69 275.206C574.953 274.568 575.339 273.988 575.826 273.499C576.313 273.01 576.891 272.623 577.529 272.358C578.166 272.093 578.849 271.957 579.539 271.957Z" fill="#ED5643"/>
<path fill-rule="evenodd" clip-rule="evenodd" d="M588.136 271.958C589.057 271.941 589.963 272.199 590.737 272.699C591.511 273.199 592.119 273.917 592.484 274.764C592.848 275.61 592.952 276.546 592.782 277.452C592.613 278.358 592.178 279.193 591.532 279.85C590.887 280.508 590.06 280.958 589.157 281.145C588.255 281.331 587.317 281.244 586.464 280.895C585.611 280.546 584.881 279.952 584.367 279.187C583.853 278.422 583.579 277.521 583.579 276.599C583.579 275.371 584.065 274.193 584.932 273.323C585.799 272.453 586.975 271.963 588.203 271.958H588.136Z" fill="#ED5643"/>
<path fill-rule="evenodd" clip-rule="evenodd" d="M597.194 273.195C598.05 273.195 598.888 273.413 599.6 273.821C600.313 274.229 600.868 274.809 601.196 275.487C601.524 276.166 601.609 276.912 601.442 277.632C601.275 278.353 600.863 279.014 600.257 279.534C599.651 280.053 598.879 280.407 598.039 280.55C597.198 280.693 596.327 280.62 595.536 280.338C594.744 280.057 594.068 279.582 593.592 278.971C593.116 278.36 592.862 277.642 592.862 276.908C592.859 276.42 592.97 275.936 593.187 275.485C593.403 275.033 593.722 274.623 594.125 274.278C594.528 273.933 595.006 273.659 595.533 273.473C596.06 273.288 596.624 273.193 597.194 273.195Z" fill="#ED5643"/>
<path fill-rule="evenodd" clip-rule="evenodd" d="M605.84 273.195C606.576 273.191 607.296 273.407 607.909 273.813C608.523 274.22 609.001 274.8 609.285 275.479C609.568 276.158 609.643 276.906 609.5 277.628C609.357 278.35 609.003 279.013 608.483 279.534C607.963 280.054 607.3 280.408 606.578 280.551C605.856 280.693 605.108 280.618 604.428 280.335C603.749 280.052 603.17 279.573 602.763 278.96C602.356 278.347 602.141 277.626 602.144 276.89C602.149 275.912 602.54 274.975 603.232 274.282C603.924 273.59 604.861 273.2 605.84 273.195Z" fill="#ED5643"/>
<path fill-rule="evenodd" clip-rule="evenodd" d="M615.434 273.814C615.985 273.811 616.525 273.971 616.985 274.276C617.445 274.58 617.805 275.013 618.018 275.522C618.231 276.031 618.289 276.591 618.183 277.132C618.077 277.674 617.813 278.171 617.425 278.562C617.036 278.953 616.539 279.22 615.999 279.329C615.458 279.438 614.897 279.383 614.388 279.173C613.878 278.963 613.442 278.606 613.135 278.148C612.829 277.689 612.665 277.15 612.665 276.599C612.665 275.863 612.956 275.157 613.475 274.635C613.994 274.113 614.698 273.818 615.434 273.814Z" fill="#ED5643"/>
<path fill-rule="evenodd" clip-rule="evenodd" d="M570.583 282.478C571.685 282.478 572.763 282.805 573.679 283.418C574.595 284.03 575.309 284.901 575.73 285.92C576.151 286.939 576.261 288.059 576.044 289.14C575.828 290.221 575.296 291.213 574.515 291.992C573.735 292.77 572.741 293.299 571.659 293.512C570.578 293.725 569.458 293.613 568.44 293.188C567.423 292.764 566.554 292.048 565.944 291.13C565.334 290.212 565.01 289.133 565.013 288.031C565.013 287.3 565.157 286.577 565.437 285.902C565.718 285.227 566.128 284.614 566.645 284.099C567.163 283.583 567.777 283.174 568.453 282.896C569.128 282.618 569.852 282.476 570.583 282.478Z" fill="#ED5643"/>
<path fill-rule="evenodd" clip-rule="evenodd" d="M579.539 283.716C580.581 283.712 581.6 284.001 582.468 284.543C583.336 285.086 584.013 285.859 584.413 286.764C584.813 287.67 584.919 288.667 584.716 289.628C584.514 290.59 584.013 291.474 583.276 292.167C582.539 292.861 581.6 293.332 580.578 293.523C579.556 293.713 578.497 293.614 577.535 293.237C576.573 292.861 575.752 292.224 575.175 291.407C574.599 290.59 574.293 289.631 574.296 288.65C574.296 287.342 574.848 286.086 575.832 285.161C576.815 284.236 578.149 283.716 579.539 283.716Z" fill="#ED5643"/>
<path fill-rule="evenodd" clip-rule="evenodd" d="M588.22 283.716C589.138 283.716 590.036 283.988 590.799 284.498C591.562 285.008 592.157 285.733 592.508 286.581C592.86 287.429 592.952 288.362 592.772 289.262C592.593 290.163 592.151 290.99 591.502 291.639C590.853 292.288 590.026 292.73 589.126 292.909C588.225 293.088 587.292 292.996 586.444 292.645C585.596 292.294 584.871 291.699 584.361 290.936C583.851 290.172 583.579 289.275 583.579 288.357C583.579 287.126 584.068 285.945 584.938 285.075C585.809 284.205 586.989 283.716 588.22 283.716Z" fill="#ED5643"/>
<path fill-rule="evenodd" clip-rule="evenodd" d="M597.194 284.334C598.051 284.334 598.889 284.553 599.602 284.961C600.315 285.37 600.87 285.951 601.198 286.63C601.525 287.31 601.61 288.057 601.441 288.778C601.272 289.498 600.858 290.16 600.25 290.678C599.643 291.197 598.869 291.55 598.028 291.691C597.186 291.833 596.315 291.757 595.523 291.474C594.732 291.19 594.057 290.712 593.583 290.099C593.109 289.487 592.858 288.767 592.862 288.032C592.862 287.545 592.974 287.063 593.192 286.613C593.41 286.164 593.729 285.756 594.132 285.412C594.534 285.068 595.012 284.796 595.537 284.611C596.063 284.427 596.626 284.332 597.194 284.334Z" fill="#ED5643"/>
<path fill-rule="evenodd" clip-rule="evenodd" d="M605.858 284.334C606.592 284.334 607.31 284.552 607.92 284.96C608.531 285.368 609.007 285.948 609.288 286.626C609.569 287.305 609.643 288.052 609.499 288.772C609.356 289.492 609.002 290.154 608.483 290.673C607.964 291.192 607.302 291.546 606.582 291.689C605.862 291.833 605.115 291.759 604.437 291.478C603.758 291.197 603.178 290.721 602.77 290.11C602.362 289.5 602.144 288.782 602.144 288.047C602.149 287.064 602.542 286.122 603.237 285.427C603.932 284.732 604.874 284.339 605.858 284.334Z" fill="#ED5643"/>
<path fill-rule="evenodd" clip-rule="evenodd" d="M615.434 285.572C615.986 285.569 616.527 285.712 616.987 285.983C617.448 286.254 617.807 286.641 618.02 287.094C618.232 287.547 618.289 288.045 618.182 288.527C618.075 289.008 617.809 289.451 617.419 289.798C617.029 290.145 616.531 290.381 615.989 290.476C615.448 290.571 614.886 290.521 614.377 290.332C613.867 290.143 613.433 289.823 613.128 289.414C612.823 289.005 612.662 288.524 612.665 288.033C612.665 287.381 612.957 286.755 613.476 286.293C613.995 285.831 614.7 285.572 615.434 285.572Z" fill="#ED5643"/>
<path fill-rule="evenodd" clip-rule="evenodd" d="M570.583 293.617C571.685 293.617 572.763 293.963 573.679 294.609C574.595 295.256 575.309 296.175 575.73 297.25C576.151 298.326 576.261 299.509 576.044 300.65C575.828 301.791 575.296 302.838 574.515 303.66C573.735 304.481 572.741 305.04 571.659 305.265C570.578 305.489 569.458 305.371 568.44 304.923C567.423 304.475 566.554 303.719 565.944 302.75C565.334 301.781 565.01 300.643 565.013 299.479C565.013 298.708 565.157 297.944 565.437 297.232C565.718 296.519 566.128 295.873 566.645 295.328C567.163 294.783 567.777 294.352 568.453 294.058C569.128 293.765 569.852 293.615 570.583 293.617Z" fill="#ED5643"/>
<path fill-rule="evenodd" clip-rule="evenodd" d="M579.539 294.855C580.58 294.852 581.599 295.122 582.466 295.63C583.334 296.138 584.01 296.862 584.411 297.71C584.812 298.557 584.919 299.491 584.718 300.392C584.517 301.294 584.017 302.122 583.282 302.773C582.547 303.423 581.61 303.867 580.589 304.047C579.568 304.228 578.509 304.137 577.547 303.786C576.585 303.435 575.762 302.84 575.184 302.076C574.605 301.313 574.296 300.415 574.296 299.496C574.296 298.268 574.848 297.09 575.831 296.22C576.813 295.35 578.147 294.859 579.539 294.855Z" fill="#ED5643"/>
<path fill-rule="evenodd" clip-rule="evenodd" d="M588.22 294.855C589.138 294.855 590.036 295.127 590.799 295.637C591.562 296.147 592.157 296.872 592.508 297.72C592.86 298.568 592.952 299.501 592.772 300.402C592.593 301.302 592.151 302.129 591.502 302.778C590.853 303.427 590.026 303.869 589.126 304.048C588.225 304.228 587.292 304.136 586.444 303.784C585.596 303.433 584.871 302.838 584.361 302.075C583.851 301.312 583.579 300.414 583.579 299.496C583.579 298.265 584.068 297.085 584.938 296.214C585.809 295.344 586.989 294.855 588.22 294.855Z" fill="#ED5643"/>
<path fill-rule="evenodd" clip-rule="evenodd" d="M597.194 294.855C598.05 294.855 598.888 295.091 599.6 295.533C600.313 295.975 600.868 296.603 601.196 297.338C601.524 298.073 601.609 298.882 601.442 299.662C601.275 300.442 600.863 301.159 600.257 301.722C599.651 302.284 598.879 302.667 598.039 302.823C597.198 302.978 596.327 302.898 595.536 302.594C594.744 302.289 594.068 301.774 593.592 301.112C593.116 300.451 592.862 299.673 592.862 298.877C592.859 298.349 592.97 297.825 593.187 297.336C593.403 296.846 593.722 296.402 594.125 296.028C594.528 295.654 595.006 295.358 595.533 295.157C596.06 294.955 596.624 294.853 597.194 294.855Z" fill="#ED5643"/>
<path fill-rule="evenodd" clip-rule="evenodd" d="M605.858 296.093C606.592 296.093 607.31 296.292 607.92 296.666C608.531 297.04 609.007 297.572 609.288 298.194C609.569 298.816 609.643 299.5 609.499 300.16C609.356 300.821 609.002 301.427 608.483 301.903C607.964 302.379 607.302 302.703 606.582 302.834C605.862 302.966 605.115 302.898 604.437 302.641C603.758 302.383 603.178 301.947 602.77 301.387C602.362 300.828 602.144 300.169 602.144 299.496C602.149 298.595 602.542 297.732 603.237 297.094C603.932 296.457 604.874 296.097 605.858 296.093Z" fill="#ED5643"/>
<path fill-rule="evenodd" clip-rule="evenodd" d="M615.434 296.093C615.985 296.089 616.525 296.268 616.985 296.605C617.445 296.943 617.805 297.425 618.018 297.991C618.231 298.556 618.289 299.178 618.183 299.78C618.077 300.381 617.813 300.934 617.425 301.369C617.036 301.803 616.539 302.099 615.999 302.22C615.458 302.341 614.897 302.281 614.388 302.047C613.878 301.814 613.442 301.417 613.135 300.908C612.829 300.399 612.665 299.8 612.665 299.187C612.665 298.369 612.956 297.585 613.475 297.005C613.994 296.425 614.698 296.097 615.434 296.093Z" fill="#ED5643"/>
<path fill-rule="evenodd" clip-rule="evenodd" d="M570.599 305.376C571.7 305.379 572.775 305.708 573.689 306.322C574.603 306.936 575.314 307.807 575.733 308.825C576.152 309.843 576.26 310.963 576.044 312.042C575.827 313.121 575.295 314.112 574.515 314.889C573.736 315.667 572.743 316.195 571.663 316.409C570.583 316.623 569.464 316.511 568.448 316.089C567.431 315.667 566.562 314.953 565.951 314.038C565.339 313.122 565.013 312.046 565.013 310.945C565.013 310.212 565.158 309.487 565.439 308.81C565.72 308.133 566.131 307.518 566.65 307.001C567.169 306.484 567.785 306.074 568.463 305.795C569.14 305.516 569.866 305.373 570.599 305.376Z" fill="#ED5643"/>
<path fill-rule="evenodd" clip-rule="evenodd" d="M579.539 305.376C580.58 305.372 581.599 305.678 582.466 306.254C583.334 306.83 584.01 307.65 584.411 308.611C584.812 309.572 584.919 310.63 584.718 311.651C584.517 312.673 584.017 313.612 583.282 314.349C582.547 315.087 581.61 315.589 580.589 315.794C579.568 315.998 578.509 315.895 577.547 315.497C576.585 315.1 575.762 314.425 575.184 313.56C574.605 312.695 574.296 311.677 574.296 310.636C574.294 309.946 574.428 309.262 574.69 308.624C574.953 307.986 575.339 307.406 575.826 306.917C576.313 306.429 576.891 306.041 577.529 305.776C578.166 305.512 578.849 305.376 579.539 305.376Z" fill="#ED5643"/>
<path fill-rule="evenodd" clip-rule="evenodd" d="M588.22 305.994C589.138 305.994 590.036 306.284 590.799 306.828C591.562 307.372 592.157 308.146 592.508 309.05C592.86 309.955 592.952 310.95 592.772 311.911C592.593 312.871 592.151 313.753 591.502 314.446C590.853 315.138 590.026 315.61 589.126 315.801C588.225 315.992 587.292 315.894 586.444 315.519C585.596 315.144 584.871 314.51 584.361 313.696C583.851 312.881 583.579 311.924 583.579 310.945C583.579 309.632 584.068 308.373 584.938 307.444C585.809 306.516 586.989 305.994 588.22 305.994Z" fill="#ED5643"/>
<path fill-rule="evenodd" clip-rule="evenodd" d="M597.275 305.994C598.395 305.995 599.473 306.415 600.288 307.168V313.466C599.768 313.953 599.134 314.307 598.442 314.498C597.75 314.688 597.02 314.709 596.318 314.559C595.616 314.409 594.961 314.092 594.413 313.636C593.865 313.181 593.439 312.6 593.173 311.945C592.907 311.29 592.809 310.582 592.888 309.881C592.967 309.181 593.22 308.51 593.625 307.928C594.03 307.345 594.574 306.87 595.211 306.542C595.847 306.214 596.556 306.044 597.275 306.048V305.994Z" fill="#ED5643"/>
<path fill-rule="evenodd" clip-rule="evenodd" d="M570.591 316.515C571.806 316.511 572.988 316.914 573.956 317.663C574.925 318.412 575.625 319.465 575.95 320.661C576.275 321.856 576.207 323.127 575.756 324.279C575.305 325.43 574.495 326.399 573.453 327.035H567.713C566.669 326.398 565.859 325.428 565.408 324.275C564.957 323.121 564.89 321.849 565.218 320.652C565.545 319.456 566.248 318.403 567.219 317.656C568.19 316.908 569.375 316.507 570.591 316.515Z" fill="#ED5643"/>
<path fill-rule="evenodd" clip-rule="evenodd" d="M579.548 316.515C580.822 316.538 582.047 317.015 583.002 317.861C583.957 318.707 584.581 319.867 584.762 321.133C584.943 322.399 584.669 323.688 583.989 324.769C583.309 325.851 582.267 326.654 581.051 327.035H578.063C576.848 326.655 575.807 325.853 575.126 324.773C574.446 323.694 574.171 322.406 574.349 321.141C574.528 319.877 575.149 318.717 576.101 317.869C577.054 317.021 578.275 316.541 579.548 316.515Z" fill="#ED5643"/>
<path fill-rule="evenodd" clip-rule="evenodd" d="M588.153 317.82C589.077 317.806 589.983 318.067 590.757 318.568C591.53 319.069 592.136 319.788 592.495 320.633C592.855 321.478 592.953 322.41 592.776 323.31C592.599 324.21 592.155 325.037 591.502 325.686C590.849 326.334 590.016 326.774 589.109 326.95C588.203 327.126 587.264 327.029 586.413 326.672C585.562 326.314 584.838 325.713 584.333 324.945C583.828 324.177 583.566 323.277 583.579 322.36C583.579 321.138 584.068 319.966 584.939 319.102C585.809 318.238 586.99 317.752 588.221 317.752L588.153 317.82Z" fill="#ED5643"/>
<path fill-rule="evenodd" clip-rule="evenodd" d="M597.275 317.752C598.395 317.753 599.473 318.145 600.288 318.85V324.684C599.768 325.139 599.134 325.47 598.442 325.648C597.75 325.826 597.02 325.845 596.318 325.705C595.616 325.565 594.961 325.269 594.413 324.843C593.865 324.417 593.439 323.874 593.173 323.263C592.907 322.651 592.809 321.989 592.888 321.334C592.967 320.68 593.22 320.053 593.625 319.509C594.03 318.965 594.574 318.52 595.211 318.214C595.847 317.908 596.556 317.749 597.275 317.752Z" fill="#ED5643"/>
<path fill-rule="evenodd" clip-rule="evenodd" d="M556.968 211.459C557.533 212.332 558.422 213.021 559.497 213.416C560.572 213.812 561.771 213.892 562.906 213.644C564.04 213.396 565.045 212.834 565.763 212.046C566.481 211.259 566.87 210.29 566.87 209.294C566.872 208.711 566.737 208.134 566.474 207.597C563.131 208.546 559.938 209.843 556.968 211.459Z" fill="#ED5643"/>
<path fill-rule="evenodd" clip-rule="evenodd" d="M561.919 215.023C560.939 215.023 559.981 215.332 559.167 215.91C558.352 216.489 557.718 217.312 557.343 218.274C556.969 219.236 556.872 220.295 557.064 221.316C557.257 222.336 557.73 223.274 558.424 224.009C559.118 224.744 560.002 225.243 560.963 225.444C561.924 225.645 562.92 225.539 563.825 225.138C564.729 224.737 565.501 224.06 566.043 223.193C566.585 222.326 566.873 221.307 566.87 220.266C566.87 219.576 566.742 218.893 566.493 218.255C566.244 217.618 565.879 217.039 565.419 216.552C564.959 216.065 564.413 215.679 563.812 215.417C563.212 215.154 562.568 215.02 561.919 215.023Z" fill="#ED5643"/>
<path fill-rule="evenodd" clip-rule="evenodd" d="M552.636 216.261C552.246 216.257 551.857 216.314 551.482 216.429C550.408 217.493 549.39 218.617 548.431 219.799C548.348 220.168 548.305 220.547 548.304 220.927C548.304 221.84 548.558 222.733 549.034 223.492C549.51 224.251 550.187 224.843 550.978 225.192C551.77 225.541 552.641 225.633 553.481 225.455C554.322 225.277 555.093 224.837 555.699 224.191C556.305 223.546 556.718 222.723 556.885 221.828C557.052 220.932 556.966 220.004 556.638 219.161C556.31 218.317 555.755 217.596 555.043 217.089C554.33 216.582 553.493 216.311 552.636 216.311V216.261Z" fill="#ED5643"/>
<path fill-rule="evenodd" clip-rule="evenodd" d="M543.972 224.306C544.835 224.147 545.618 223.668 546.183 222.954C546.748 222.24 547.059 221.336 547.061 220.402C547.068 220.259 547.068 220.116 547.061 219.974C545.975 221.347 544.974 222.794 544.065 224.306H543.972Z" fill="#ED5643"/>
<path fill-rule="evenodd" clip-rule="evenodd" d="M561.919 226.162C560.94 226.162 559.983 226.471 559.168 227.049C558.354 227.627 557.72 228.448 557.345 229.41C556.97 230.371 556.872 231.428 557.063 232.449C557.254 233.469 557.726 234.406 558.418 235.142C559.111 235.878 559.993 236.379 560.953 236.582C561.913 236.785 562.909 236.68 563.814 236.282C564.718 235.884 565.491 235.21 566.035 234.345C566.579 233.48 566.87 232.463 566.87 231.422C566.87 230.027 566.348 228.689 565.42 227.703C564.491 226.717 563.232 226.162 561.919 226.162Z" fill="#ED5643"/>
<path fill-rule="evenodd" clip-rule="evenodd" d="M552.636 227.4C551.779 227.4 550.942 227.636 550.229 228.078C549.517 228.52 548.962 229.148 548.634 229.883C548.306 230.618 548.22 231.427 548.387 232.207C548.555 232.987 548.967 233.704 549.573 234.267C550.179 234.829 550.951 235.213 551.791 235.368C552.631 235.523 553.502 235.443 554.294 235.139C555.085 234.834 555.762 234.319 556.238 233.657C556.714 232.996 556.968 232.218 556.968 231.422C556.968 230.356 556.512 229.332 555.699 228.578C554.887 227.824 553.785 227.4 552.636 227.4Z" fill="#ED5643"/>
<path fill-rule="evenodd" clip-rule="evenodd" d="M543.469 227.4C543.091 227.399 542.714 227.466 542.355 227.6C541.535 229.416 540.835 231.296 540.259 233.226C540.623 234.035 541.217 234.683 541.948 235.066C542.679 235.449 543.503 235.545 544.288 235.339C545.073 235.133 545.774 234.637 546.278 233.93C546.782 233.222 547.059 232.346 547.066 231.44C547.066 230.369 546.687 229.341 546.013 228.583C545.338 227.826 544.423 227.4 543.469 227.4Z" fill="#ED5643"/>
<path fill-rule="evenodd" clip-rule="evenodd" d="M561.919 237.92C560.94 237.92 559.983 238.229 559.168 238.807C558.354 239.385 557.72 240.206 557.345 241.168C556.97 242.129 556.872 243.186 557.063 244.207C557.254 245.227 557.726 246.164 558.418 246.9C559.111 247.636 559.993 248.137 560.953 248.34C561.913 248.543 562.909 248.439 563.814 248.04C564.718 247.642 565.491 246.968 566.035 246.103C566.579 245.238 566.87 244.221 566.87 243.181C566.872 242.489 566.745 241.804 566.497 241.165C566.249 240.526 565.885 239.945 565.424 239.456C564.964 238.967 564.418 238.58 563.816 238.316C563.214 238.053 562.57 237.918 561.919 237.92Z" fill="#ED5643"/>
<path fill-rule="evenodd" clip-rule="evenodd" d="M552.652 238.539C551.794 238.536 550.955 238.788 550.241 239.262C549.526 239.736 548.969 240.411 548.638 241.202C548.308 241.994 548.22 242.865 548.385 243.707C548.551 244.548 548.962 245.321 549.567 245.929C550.173 246.536 550.944 246.95 551.785 247.119C552.626 247.287 553.498 247.202 554.29 246.875C555.083 246.547 555.76 245.992 556.237 245.28C556.714 244.567 556.968 243.729 556.968 242.871C556.968 241.725 556.514 240.626 555.705 239.814C554.896 239.002 553.798 238.543 552.652 238.539Z" fill="#ED5643"/>
<path fill-rule="evenodd" clip-rule="evenodd" d="M543.044 238.539C542.248 238.539 541.471 238.793 540.809 239.269C540.148 239.745 539.632 240.422 539.328 241.213C539.023 242.005 538.943 242.876 539.099 243.716C539.254 244.557 539.637 245.328 540.2 245.934C540.762 246.54 541.479 246.953 542.259 247.12C543.039 247.287 543.848 247.201 544.583 246.873C545.318 246.546 545.946 245.99 546.388 245.278C546.83 244.566 547.066 243.728 547.066 242.871C547.069 242.302 546.966 241.737 546.765 241.211C546.563 240.684 546.267 240.205 545.893 239.803C545.519 239.4 545.075 239.081 544.586 238.864C544.097 238.647 543.573 238.537 543.044 238.539Z" fill="#ED5643"/>
<path fill-rule="evenodd" clip-rule="evenodd" d="M561.919 249.06C560.939 249.06 559.981 249.369 559.167 249.947C558.352 250.526 557.718 251.349 557.343 252.311C556.969 253.273 556.872 254.332 557.064 255.352C557.257 256.373 557.73 257.311 558.424 258.046C559.118 258.781 560.002 259.28 560.963 259.481C561.924 259.682 562.92 259.576 563.825 259.175C564.729 258.774 565.501 258.097 566.043 257.23C566.585 256.363 566.873 255.344 566.87 254.303C566.87 253.613 566.742 252.93 566.493 252.292C566.244 251.655 565.879 251.076 565.419 250.589C564.959 250.102 564.413 249.716 563.812 249.454C563.212 249.191 562.568 249.057 561.919 249.06Z" fill="#ED5643"/>
<path fill-rule="evenodd" clip-rule="evenodd" d="M552.636 249.06C551.779 249.06 550.942 249.332 550.229 249.842C549.517 250.352 548.962 251.077 548.634 251.925C548.306 252.773 548.22 253.706 548.387 254.607C548.555 255.507 548.967 256.334 549.573 256.983C550.179 257.632 550.951 258.074 551.791 258.253C552.631 258.432 553.502 258.341 554.294 257.989C555.085 257.638 555.762 257.043 556.238 256.28C556.714 255.516 556.968 254.619 556.968 253.701C556.968 252.47 556.512 251.29 555.699 250.419C554.887 249.549 553.785 249.06 552.636 249.06Z" fill="#ED5643"/>
<path fill-rule="evenodd" clip-rule="evenodd" d="M543.044 250.298C542.248 250.298 541.469 250.534 540.807 250.977C540.145 251.419 539.63 252.049 539.326 252.785C539.022 253.521 538.943 254.33 539.1 255.111C539.256 255.892 539.641 256.608 540.205 257.17C540.77 257.732 541.488 258.114 542.269 258.267C543.051 258.421 543.86 258.339 544.595 258.032C545.33 257.725 545.957 257.206 546.397 256.543C546.837 255.879 547.07 255.1 547.066 254.303C547.066 253.776 546.962 253.254 546.76 252.767C546.558 252.279 546.261 251.837 545.887 251.465C545.513 251.093 545.07 250.798 544.582 250.598C544.094 250.397 543.571 250.295 543.044 250.298Z" fill="#ED5643"/>
<path fill-rule="evenodd" clip-rule="evenodd" d="M561.919 260.818C560.94 260.818 559.983 261.108 559.168 261.652C558.354 262.196 557.72 262.97 557.345 263.874C556.97 264.779 556.872 265.774 557.063 266.735C557.254 267.695 557.726 268.577 558.418 269.27C559.111 269.962 559.993 270.433 560.953 270.625C561.913 270.816 562.909 270.718 563.814 270.343C564.718 269.968 565.491 269.333 566.035 268.519C566.579 267.705 566.87 266.748 566.87 265.769C566.87 265.119 566.742 264.475 566.493 263.874C566.244 263.274 565.879 262.728 565.42 262.268C564.96 261.808 564.414 261.444 563.814 261.195C563.213 260.946 562.569 260.818 561.919 260.818Z" fill="#ED5643"/>
<path fill-rule="evenodd" clip-rule="evenodd" d="M552.636 260.818C551.779 260.818 550.942 261.09 550.229 261.6C549.517 262.11 548.962 262.835 548.634 263.683C548.306 264.531 548.22 265.465 548.387 266.365C548.555 267.265 548.967 268.092 549.573 268.741C550.179 269.39 550.951 269.833 551.791 270.012C552.631 270.191 553.502 270.099 554.294 269.747C555.085 269.396 555.762 268.801 556.238 268.038C556.714 267.275 556.968 266.377 556.968 265.459C556.968 264.228 556.512 263.048 555.699 262.177C554.887 261.307 553.785 260.818 552.636 260.818Z" fill="#ED5643"/>
<path fill-rule="evenodd" clip-rule="evenodd" d="M543.305 261.437C542.417 261.441 541.557 261.757 540.878 262.33C541.823 264.615 542.988 266.803 544.355 268.863C545.225 268.605 545.974 268.042 546.465 267.277C546.956 266.513 547.156 265.597 547.029 264.698C546.902 263.798 546.456 262.974 545.773 262.375C545.089 261.777 544.214 261.444 543.305 261.437Z" fill="#ED5643"/>
<path fill-rule="evenodd" clip-rule="evenodd" d="M561.919 271.957C560.94 271.957 559.983 272.266 559.168 272.844C558.354 273.422 557.72 274.243 557.345 275.205C556.97 276.166 556.872 277.223 557.063 278.244C557.254 279.264 557.726 280.201 558.418 280.937C559.111 281.673 559.993 282.174 560.953 282.377C561.913 282.58 562.909 282.476 563.814 282.077C564.718 281.679 565.491 281.005 566.035 280.14C566.579 279.275 566.87 278.258 566.87 277.218C566.872 276.526 566.745 275.841 566.497 275.202C566.249 274.563 565.885 273.982 565.424 273.493C564.964 273.004 564.418 272.617 563.816 272.353C563.214 272.09 562.57 271.955 561.919 271.957Z" fill="#ED5643"/>
<path fill-rule="evenodd" clip-rule="evenodd" d="M552.297 271.957C551.497 271.959 550.711 272.162 550.012 272.548C549.314 272.933 548.726 273.488 548.304 274.159L549.384 275.294V280.258C549.972 280.712 550.662 281.021 551.396 281.158C552.13 281.296 552.886 281.259 553.602 281.05C554.318 280.841 554.974 280.466 555.514 279.957C556.054 279.447 556.464 278.817 556.709 278.12C556.953 277.423 557.026 276.677 556.922 275.947C556.817 275.216 556.537 274.52 556.105 273.918C555.674 273.315 555.104 272.823 554.441 272.482C553.779 272.141 553.044 271.961 552.297 271.957Z" fill="#ED5643"/>
<path fill-rule="evenodd" clip-rule="evenodd" d="M561.919 283.716C560.939 283.716 559.981 284.006 559.167 284.551C558.352 285.096 557.718 285.87 557.343 286.776C556.969 287.681 556.872 288.677 557.064 289.638C557.257 290.599 557.73 291.481 558.424 292.173C559.118 292.865 560.002 293.335 560.963 293.524C561.924 293.713 562.92 293.613 563.825 293.236C564.729 292.858 565.501 292.222 566.043 291.405C566.585 290.589 566.873 289.63 566.87 288.65C566.87 288.001 566.742 287.358 566.493 286.758C566.244 286.158 565.879 285.614 565.419 285.155C564.959 284.697 564.413 284.334 563.812 284.087C563.212 283.84 562.568 283.713 561.919 283.716Z" fill="#ED5643"/>
<path fill-rule="evenodd" clip-rule="evenodd" d="M552.386 283.716C551.354 283.715 550.352 284.067 549.542 284.715V291.999C550.116 292.458 550.789 292.771 551.507 292.913C552.225 293.054 552.965 293.02 553.667 292.813C554.369 292.605 555.012 292.231 555.542 291.721C556.072 291.211 556.474 290.58 556.714 289.881C556.954 289.182 557.025 288.435 556.922 287.702C556.819 286.969 556.544 286.272 556.121 285.668C555.697 285.065 555.137 284.573 554.487 284.233C553.838 283.893 553.117 283.716 552.386 283.716Z" fill="#ED5643"/>
<path fill-rule="evenodd" clip-rule="evenodd" d="M561.919 294.855C560.94 294.855 559.983 295.127 559.168 295.637C558.354 296.147 557.72 296.872 557.345 297.72C556.97 298.568 556.872 299.501 557.063 300.402C557.254 301.302 557.726 302.129 558.418 302.778C559.111 303.427 559.993 303.869 560.953 304.048C561.913 304.228 562.909 304.136 563.814 303.784C564.718 303.433 565.491 302.838 566.035 302.075C566.579 301.312 566.87 300.414 566.87 299.496C566.87 298.265 566.348 297.085 565.42 296.214C564.491 295.344 563.232 294.855 561.919 294.855Z" fill="#ED5643"/>
<path fill-rule="evenodd" clip-rule="evenodd" d="M552.386 294.855C551.354 294.854 550.352 295.206 549.542 295.854V303.138C550.116 303.597 550.789 303.91 551.507 304.052C552.225 304.194 552.965 304.159 553.667 303.952C554.369 303.745 555.012 303.371 555.542 302.861C556.072 302.351 556.474 301.72 556.714 301.02C556.954 300.321 557.025 299.574 556.922 298.841C556.819 298.108 556.544 297.411 556.121 296.808C555.697 296.204 555.137 295.712 554.487 295.372C553.838 295.033 553.117 294.855 552.386 294.855Z" fill="#ED5643"/>
<path fill-rule="evenodd" clip-rule="evenodd" d="M561.919 305.376C560.94 305.376 559.983 305.684 559.168 306.262C558.354 306.84 557.72 307.662 557.345 308.623C556.97 309.584 556.872 310.642 557.063 311.662C557.254 312.682 557.726 313.62 558.418 314.355C559.111 315.091 559.993 315.592 560.953 315.795C561.913 315.998 562.909 315.894 563.814 315.496C564.718 315.097 565.491 314.423 566.035 313.558C566.579 312.693 566.87 311.676 566.87 310.636C566.872 309.944 566.745 309.259 566.497 308.62C566.249 307.981 565.885 307.4 565.424 306.911C564.964 306.422 564.418 306.035 563.816 305.771C563.214 305.508 562.57 305.373 561.919 305.376Z" fill="#ED5643"/>
<path fill-rule="evenodd" clip-rule="evenodd" d="M552.386 305.994C551.354 305.994 550.352 306.369 549.542 307.06V314.83C550.116 315.319 550.789 315.653 551.507 315.804C552.225 315.955 552.965 315.919 553.667 315.698C554.369 315.477 555.012 315.078 555.542 314.534C556.072 313.99 556.474 313.317 556.714 312.571C556.954 311.825 557.025 311.028 556.922 310.246C556.819 309.464 556.544 308.721 556.121 308.077C555.697 307.433 555.137 306.908 554.487 306.546C553.838 306.184 553.117 305.995 552.386 305.994Z" fill="#ED5643"/>
<path fill-rule="evenodd" clip-rule="evenodd" d="M561.881 316.515C560.693 316.538 559.551 317.015 558.66 317.861C557.769 318.707 557.187 319.867 557.019 321.133C556.85 322.399 557.106 323.688 557.74 324.769C558.374 325.851 559.345 326.654 560.48 327.035H563.266C564.421 326.677 565.416 325.881 566.069 324.796C566.722 323.711 566.989 322.408 566.82 321.128C566.652 319.847 566.059 318.676 565.152 317.828C564.244 316.98 563.083 316.514 561.881 316.515Z" fill="#ED5643"/>
<path fill-rule="evenodd" clip-rule="evenodd" d="M552.394 317.752C551.359 317.752 550.354 318.104 549.542 318.752V326.053C550.118 326.507 550.794 326.816 551.512 326.954C552.23 327.091 552.971 327.054 553.672 326.845C554.374 326.636 555.015 326.261 555.544 325.752C556.073 325.242 556.474 324.613 556.714 323.915C556.954 323.218 557.025 322.473 556.923 321.742C556.82 321.011 556.546 320.315 556.123 319.713C555.701 319.11 555.142 318.618 554.494 318.277C553.845 317.936 553.126 317.756 552.394 317.752Z" fill="#ED5643"/>
<path fill-rule="evenodd" clip-rule="evenodd" d="M163.452 0H52.6769V128.722H163.452V0Z" fill="#FFCB05"/>
<path fill-rule="evenodd" clip-rule="evenodd" d="M144.91 41.5551L156.879 71.228C157.172 71.8869 157.3 72.6066 157.254 73.3258C157.208 74.0449 156.988 74.7424 156.614 75.3586C156.24 75.9748 155.722 76.4915 155.104 76.8649C154.487 77.2383 153.788 77.4573 153.068 77.5031H148.17V96.8622C148.161 99.6702 147.04 102.361 145.051 104.346C143.063 106.332 140.368 107.451 137.555 107.46H122.36V128.722H79.3651V80.1567C75.1983 75.9162 72.0531 70.7842 70.1679 65.15C68.2827 59.5157 67.707 53.527 68.4843 47.6377C69.2616 41.7483 71.3716 36.1128 74.6544 31.1584C77.9372 26.2041 82.3066 22.0607 87.4314 19.0425C92.5563 16.0244 98.3021 14.2106 104.233 13.7385C110.165 13.2665 116.126 14.1486 121.665 16.3181C127.204 18.4875 132.176 21.8874 136.203 26.2599C140.231 30.6325 143.208 35.8631 144.91 41.5551Z" fill="black"/>
<path fill-rule="evenodd" clip-rule="evenodd" d="M124.575 107.478H109.398V128.722H79.3451V80.1984C74.3323 75.091 70.8175 68.7088 69.1826 61.7457C67.5478 54.7827 67.8557 47.5052 70.0726 40.7047C72.2896 33.9042 76.3309 27.8407 81.7571 23.1737C87.1834 18.5066 93.7869 15.4146 100.85 14.2336C108.073 15.4482 114.812 18.658 120.303 23.4998C125.795 28.3416 129.819 34.622 131.921 41.63L143.876 71.2775C144.172 71.9355 144.303 72.6555 144.259 73.3755C144.215 74.0956 143.996 74.7941 143.621 75.411C143.247 76.0279 142.728 76.5446 142.109 76.9167C141.49 77.2889 140.79 77.5052 140.069 77.5471H135.16V96.8896C135.156 99.6936 134.04 102.382 132.056 104.366C130.072 106.35 127.382 107.469 124.575 107.478Z" fill="#58595B"/>
<path fill-rule="evenodd" clip-rule="evenodd" d="M96.4601 128.721H79.3504V80.0206C74.7335 75.301 71.3801 69.4889 69.6009 63.1235C67.8218 56.758 67.6745 50.0452 69.1728 43.6075C70.6711 37.1698 73.7665 31.2157 78.1719 26.2971C82.5773 21.3785 88.15 17.6548 94.3735 15.4712C100.22 17.5241 105.5 20.9357 109.779 25.4269C114.058 29.9181 117.216 35.3613 118.995 41.3111L130.88 71.067C131.176 71.7274 131.307 72.4501 131.263 73.1728C131.219 73.8954 131 74.5966 130.626 75.2157C130.251 75.8348 129.732 76.3535 129.113 76.7269C128.495 77.1004 127.795 77.3175 127.074 77.3596H122.166V96.773C122.162 99.5872 121.046 102.285 119.063 104.277C117.079 106.268 114.39 107.391 111.583 107.4H96.3933V128.721H96.4601Z" fill="#808285"/>
<path fill-rule="evenodd" clip-rule="evenodd" d="M83.7172 128.722H79.4539V80.0865C75.2177 75.8017 72.0297 70.6096 70.1355 64.9103C68.2413 59.211 67.6914 53.1565 68.5282 47.2132C69.365 41.2699 71.566 35.5964 74.9619 30.6297C78.3578 25.663 82.8578 21.5357 88.1154 18.5657C96.9624 23.5667 103.528 31.7543 106.45 41.4292L118.498 71.145C118.797 71.8033 118.93 72.5235 118.886 73.244C118.842 73.9645 118.623 74.6637 118.247 75.2816C117.871 75.8995 117.349 76.4177 116.727 76.7918C116.104 77.1658 115.4 77.3845 114.673 77.4291H109.719V96.8163C109.714 99.6267 108.588 102.321 106.586 104.31C104.584 106.299 101.869 107.42 99.0351 107.429H83.7172V128.722Z" fill="#A7A9AC"/>
<path fill-rule="evenodd" clip-rule="evenodd" d="M93.2118 45.795C94.6194 45.795 95.9953 46.2124 97.1656 46.9944C98.336 47.7764 99.2482 48.888 99.7868 50.1884C100.326 51.4888 100.466 52.9197 100.192 54.3003C99.9173 55.6808 99.2394 56.9489 98.2441 57.9442C97.2488 58.9395 95.9807 59.6173 94.6002 59.8919C93.2197 60.1665 91.7887 60.0256 90.4883 59.487C89.1879 58.9483 88.0764 58.0361 87.2944 56.8657C86.5124 55.6954 86.095 54.3194 86.095 52.9118C86.095 51.0243 86.8448 49.2142 88.1794 47.8796C89.5141 46.5449 91.3243 45.795 93.2118 45.795Z" fill="#D1D3D4"/>
<path fill-rule="evenodd" clip-rule="evenodd" d="M513.648 501.552H402.255V630.274H513.648V501.552Z" fill="#C7A0CB"/>
<path fill-rule="evenodd" clip-rule="evenodd" d="M486.011 538.907L498.389 570.021C498.695 570.71 498.832 571.463 498.788 572.217C498.743 572.971 498.518 573.703 498.133 574.35C497.747 574.996 497.212 575.539 496.574 575.93C495.935 576.322 495.212 576.551 494.467 576.599H489.387V596.884C489.378 599.824 488.219 602.641 486.164 604.72C484.108 606.799 481.323 607.971 478.416 607.98H466.965L462.695 630.273H412.754V572.364C409.687 567.403 407.706 561.835 406.942 556.035C406.178 550.235 406.65 544.336 408.326 538.736C410.002 533.136 412.843 527.963 416.658 523.564C420.473 519.166 425.175 515.644 430.447 513.235C435.719 510.826 441.44 509.586 447.225 509.597C453.01 509.609 458.726 510.872 463.989 513.302C469.252 515.732 473.94 519.272 477.738 523.686C481.536 528.099 484.357 533.284 486.011 538.891V538.907Z" fill="#67516A"/>
<path fill-rule="evenodd" clip-rule="evenodd" d="M487.17 539.021L487.657 540.214L408.014 561.581C407.059 558.069 406.579 554.445 406.587 550.805C406.586 540.907 410.144 531.339 416.611 523.851C423.077 516.364 432.02 511.457 441.804 510.028C451.588 508.6 461.558 510.745 469.891 516.072C478.224 521.399 484.364 529.551 487.186 539.037L487.17 539.021Z" fill="#E6E7E8"/>
<path fill-rule="evenodd" clip-rule="evenodd" d="M469.305 544.872L507.257 534.813C507.97 534.622 508.577 534.16 508.945 533.527C509.314 532.895 509.413 532.143 509.221 531.439C509.127 531.089 508.964 530.761 508.741 530.473C508.518 530.186 508.24 529.945 507.923 529.765C507.605 529.585 507.254 529.468 506.891 529.422C506.527 529.377 506.158 529.403 505.805 529.499L467.853 539.541L469.289 544.872H469.305Z" fill="#E6E7E8"/>
<path fill-rule="evenodd" clip-rule="evenodd" d="M318.71 145.092H207.316V273.814H318.71V145.092Z" fill="#E6E7E8"/>
<path fill-rule="evenodd" clip-rule="evenodd" d="M237.64 224.924H272.914V273.814H237.64V224.924Z" fill="#D65E3A"/>
<path fill-rule="evenodd" clip-rule="evenodd" d="M298.517 223.042V239.77C298.517 246.362 294.533 251.865 287.46 251.865H281.688V273.814H262.394V185.318H295.242L308.189 222.958H298.517V223.042Z" fill="#A72017"/>
<path fill-rule="evenodd" clip-rule="evenodd" d="M257.752 159.326C265.647 159.326 273.364 161.685 279.929 166.105C286.493 170.525 291.609 176.808 294.63 184.158C297.651 191.508 298.442 199.596 296.902 207.399C295.361 215.202 291.56 222.37 285.977 227.995C280.395 233.621 273.283 237.452 265.54 239.004C257.797 240.556 249.771 239.759 242.477 236.715C235.184 233.67 228.95 228.515 224.563 221.899C220.177 215.284 217.836 207.507 217.836 199.551C217.836 188.883 222.042 178.651 229.528 171.108C237.013 163.564 247.166 159.326 257.752 159.326Z" fill="#A72017"/>
<path fill-rule="evenodd" clip-rule="evenodd" d="M262.394 243.49H257.443V198.932H262.394V243.49Z" fill="#D65E3A"/>
<path fill-rule="evenodd" clip-rule="evenodd" d="M257.443 192.744H291.48V201.408H257.443V192.744Z" fill="#D65E3A"/>
<path fill-rule="evenodd" clip-rule="evenodd" d="M275.646 207.596H294.92C295.646 207.596 296.343 207.857 296.857 208.321C297.372 208.784 297.664 209.414 297.668 210.072C297.664 210.73 297.372 211.359 296.857 211.823C296.343 212.287 295.646 212.547 294.92 212.547H275.646C274.923 212.543 274.231 212.281 273.719 211.818C273.208 211.354 272.919 210.727 272.914 210.072C272.919 209.417 273.208 208.789 273.719 208.326C274.231 207.862 274.923 207.6 275.646 207.596Z" fill="#D1D3D4"/>
</svg>
